<svg width="126" height="126" viewBox="0 0 126 126" fill="none" xmlns="http://www.w3.org/2000/svg">
    <rect width="126" height="126" rx="63" fill="#FCCBBE" />
    <path
        d="M68.0523 62.9998L83.4606 47.6273C84.1354 46.9525 84.5144 46.0374 84.5144 45.0831C84.5144 44.1289 84.1354 43.2137 83.4606 42.5389C82.7859 41.8642 81.8707 41.4851 80.9165 41.4851C79.9622 41.4851 79.047 41.8642 78.3723 42.5389L62.9998 57.9473L47.6273 42.5389C46.9525 41.8642 46.0374 41.4851 45.0831 41.4851C44.1289 41.4851 43.2137 41.8642 42.5389 42.5389C41.8642 43.2137 41.4851 44.1289 41.4851 45.0831C41.4851 46.0374 41.8642 46.9525 42.5389 47.6273L57.9473 62.9998L42.5389 78.3723C42.2031 78.7054 41.9365 79.1017 41.7546 79.5384C41.5727 79.975 41.479 80.4434 41.479 80.9164C41.479 81.3895 41.5727 81.8578 41.7546 82.2945C41.9365 82.7312 42.2031 83.1275 42.5389 83.4606C42.8721 83.7965 43.2684 84.063 43.705 84.245C44.1417 84.4269 44.6101 84.5205 45.0831 84.5205C45.5562 84.5205 46.0245 84.4269 46.4612 84.245C46.8978 84.063 47.2942 83.7965 47.6273 83.4606L62.9998 68.0523L78.3723 83.4606C78.7054 83.7965 79.1017 84.063 79.5384 84.245C79.975 84.4269 80.4434 84.5205 80.9165 84.5205C81.3895 84.5205 81.8579 84.4269 82.2945 84.245C82.7312 84.063 83.1275 83.7965 83.4606 83.4606C83.7965 83.1275 84.0631 82.7312 84.245 82.2945C84.4269 81.8578 84.5206 81.3895 84.5206 80.9164C84.5206 80.4434 84.4269 79.975 84.245 79.5384C84.0631 79.1017 83.7965 78.7054 83.4606 78.3723L68.0523 62.9998Z"
        fill="#F85229"
    />
</svg>