<svg width="126" height="126" viewBox="0 0 126 126" fill="none" xmlns="http://www.w3.org/2000/svg">
    <rect width="126" height="126" rx="63" fill="#C4EFD5" />
    <path
        d="M55.3298 84.4999C54.8384 84.4983 54.3527 84.3957 53.9027 84.1985C53.4527 84.0012 53.0481 83.7135 52.7139 83.3533L35.2989 64.8274C34.6479 64.1337 34.2992 63.2097 34.3295 62.2588C34.3597 61.3079 34.7664 60.408 35.4602 59.757C36.154 59.106 37.0779 58.7573 38.0288 58.7875C38.9797 58.8178 39.8796 59.2245 40.5306 59.9183L55.2939 75.6491L85.4298 42.6824C85.7356 42.3016 86.116 41.9873 86.5478 41.7589C86.9795 41.5304 87.4533 41.3927 87.9402 41.354C88.4271 41.3154 88.9168 41.3767 89.3791 41.5341C89.8414 41.6916 90.2667 41.942 90.6288 42.2698C90.9908 42.5976 91.2821 42.996 91.4846 43.4405C91.6871 43.8849 91.7966 44.3661 91.8063 44.8544C91.8161 45.3427 91.7259 45.8279 91.5414 46.2801C91.3568 46.7323 91.0818 47.142 90.7331 47.4841L57.9814 83.3174C57.6505 83.6842 57.2473 83.9786 56.7971 84.1821C56.347 84.3856 55.8596 84.4938 55.3656 84.4999H55.3298Z"
        fill="#3CCB75"
    />
</svg>